<?xml version="1.0" standalone="no"?>
<!DOCTYPE svg PUBLIC "-//W3C//DTD SVG 20010904//EN"
 "http://www.w3.org/TR/2001/REC-SVG-20010904/DTD/svg10.dtd">
<svg version="1.0" xmlns="http://www.w3.org/2000/svg"
 width="427.000000pt" height="427.000000pt" viewBox="0 0 427.000000 427.000000"
 preserveAspectRatio="xMidYMid meet">
<metadata>
Created by potrace 1.11, written by Peter Selinger 2001-2013
</metadata>
<g transform="translate(0.000000,427.000000) scale(0.100000,-0.100000)"
fill="#000000" stroke="none">
<path d="M2850 4209 c-106 -50 -191 -85 -500 -205 -19 -7 -170 -60 -335 -117
-344 -120 -450 -162 -589 -229 -83 -41 -249 -139 -266 -158 -3 -3 -29 -25 -59
-49 -216 -178 -341 -429 -386 -778 -13 -100 -14 -521 -2 -578 3 -11 8 -51 11
-90 4 -38 9 -77 11 -85 2 -8 6 -37 10 -65 10 -83 15 -114 42 -250 14 -71 27
-143 30 -160 5 -30 78 -340 95 -405 11 -43 23 -90 38 -153 6 -26 16 -47 21
-47 6 0 8 -4 5 -8 -5 -9 11 -25 174 -172 52 -47 97 -87 100 -90 3 -4 48 -42
100 -86 278 -235 485 -368 678 -438 94 -34 109 -36 222 -41 96 -4 181 8 270
40 62 22 194 86 198 97 2 4 8 8 14 8 9 0 101 57 133 82 6 4 38 28 72 52 33 25
69 51 80 59 138 111 292 235 308 248 11 9 41 34 66 55 70 60 141 118 156 129
10 8 -17 33 -114 107 -71 53 -220 178 -333 278 -235 209 -330 287 -414 342
-33 21 -54 38 -47 38 7 0 40 21 74 47 173 133 282 254 362 406 45 85 99 233
109 301 4 21 8 48 11 60 14 71 22 399 11 506 -2 19 -7 71 -11 115 -4 44 -9 87
-10 96 -2 9 -6 40 -10 70 -3 30 -12 92 -20 139 -8 47 -17 103 -20 125 -3 23
-7 50 -9 62 -3 11 -7 36 -10 54 -3 19 -8 44 -10 55 -2 12 -7 39 -11 60 -5 38
-28 165 -81 459 -14 77 -26 148 -27 158 -1 9 -4 17 -7 16 -3 0 -61 -27 -130
-60z"/>
</g>
</svg>
