<?xml version="1.0" standalone="no"?>
<!DOCTYPE svg PUBLIC "-//W3C//DTD SVG 20010904//EN"
 "http://www.w3.org/TR/2001/REC-SVG-20010904/DTD/svg10.dtd">
<svg version="1.0" xmlns="http://www.w3.org/2000/svg"
 width="192.000000pt" height="192.000000pt" viewBox="0 0 192.000000 192.000000"
 preserveAspectRatio="xMidYMid meet">
<metadata>
Created by potrace 1.11, written by Peter Selinger 2001-2013
</metadata>
<g transform="translate(0.000000,192.000000) scale(0.100000,-0.100000)"
fill="#000000" stroke="none">
<path d="M1280 1892 c-19 -9 -36 -17 -38 -18 -1 -1 3 -13 9 -28 7 -15 18 -25
26 -22 21 8 15 -2 -18 -32 l-31 -27 19 -32 c10 -18 29 -35 43 -38 35 -9 71 36
67 86 -2 33 -5 36 -29 35 -35 -3 -35 2 -3 14 25 9 31 32 19 64 -8 20 -19 19
-64 -2z"/>
<path d="M1190 1853 c-19 -8 -38 -19 -41 -25 -3 -5 -8 -9 -10 -8 -2 1 -23 -3
-47 -9 -55 -15 -73 -48 -48 -86 24 -36 71 -35 89 3 16 30 12 51 -9 68 -13 10
-12 13 1 18 11 4 17 -2 22 -24 5 -26 10 -30 38 -30 20 0 39 8 52 23 20 20 20
25 8 55 -8 17 -15 32 -17 31 -2 0 -19 -7 -38 -16z"/>
<path d="M1005 1780 c-16 -7 -17 -9 -3 -9 9 -1 20 4 23 9 7 11 7 11 -20 0z"/>
<path d="M907 1745 c-29 -15 -29 -15 -52 -15 -8 0 -12 -6 -9 -14 7 -17 57 -32
62 -18 2 6 12 20 23 33 30 34 23 39 -24 14z"/>
<path d="M940 1725 l-21 -34 23 -31 c26 -36 57 -35 90 3 l19 22 -11 -23 c-9
-18 -9 -31 0 -53 10 -24 19 -29 45 -29 41 0 60 34 44 80 -10 26 -16 30 -49 30
-35 0 -39 3 -50 35 -10 29 -16 35 -40 35 -22 0 -33 -8 -50 -35z"/>
<path d="M1145 1720 c-15 -30 -12 -74 6 -86 17 -10 76 16 89 41 11 20 10 28
-4 50 -24 37 -70 35 -91 -5z"/>
<path d="M1351 1721 l-21 -29 31 -23 c29 -20 31 -20 25 -3 -3 10 -7 34 -8 52
-1 17 -3 32 -4 32 -2 0 -12 -13 -23 -29z"/>
<path d="M775 1703 c-50 -20 -47 -17 -39 -37 3 -9 14 -16 24 -16 11 0 21 -4
24 -8 3 -5 -4 -8 -16 -8 -11 1 -29 -11 -40 -25 -20 -26 -20 -28 -2 -58 10 -17
25 -31 33 -31 11 0 9 -5 -7 -16 -34 -23 -46 -52 -30 -72 12 -16 11 -16 -7 0
-11 9 -33 20 -48 23 -16 4 -35 18 -44 31 -23 35 -89 34 -105 -1 -18 -41 3 -75
46 -75 25 0 38 6 46 20 6 11 16 20 22 20 6 0 1 -11 -12 -25 l-23 -25 23 -25
c13 -14 34 -25 47 -25 13 0 23 -4 23 -9 0 -5 -8 -7 -19 -4 -25 6 -64 -43 -55
-71 6 -20 5 -20 -8 -3 -18 23 -67 14 -90 -18 -17 -22 -17 -25 0 -54 24 -43 70
-43 95 -1 10 17 15 36 11 43 -6 9 -4 9 7 0 7 -7 27 -13 45 -13 27 0 34 5 43
31 8 23 7 37 -3 57 -12 24 -11 31 5 56 10 16 16 33 13 37 -2 4 11 5 30 2 31
-5 37 -2 55 28 21 35 14 69 -14 69 -7 0 -16 4 -19 9 -4 5 3 7 13 4 26 -7 37
43 18 88 -12 31 -12 37 5 60 11 14 16 32 12 42 -7 20 -8 20 -59 0z"/>
<path d="M834 1657 c-12 -25 -13 -38 -5 -60 10 -26 14 -28 43 -21 37 7 77 34
77 49 0 18 -25 44 -53 55 -40 15 -45 13 -62 -23z"/>
<path d="M1255 1677 c-39 -48 -38 -45 -8 -71 37 -33 70 -33 99 2 29 33 30 36
1 55 -33 21 -80 29 -92 14z"/>
<path d="M661 1655 l-52 -25 17 -30 c10 -16 24 -30 30 -30 20 0 74 50 74 68
-1 39 -14 42 -69 17z"/>
<path d="M1356 1604 l-28 -36 23 -24 c37 -39 47 -31 43 33 -3 31 -6 58 -7 59
-2 2 -15 -13 -31 -32z"/>
<path d="M974 1620 c-12 -4 -30 -20 -41 -34 -11 -14 -23 -23 -26 -20 -3 3 -19
3 -36 -1 -38 -8 -51 -44 -27 -79 8 -14 12 -26 8 -28 -4 -2 -15 -17 -24 -34
-15 -26 -15 -36 -5 -63 16 -44 61 -44 100 1 l29 33 -22 -33 c-21 -32 -21 -34
-5 -53 25 -26 76 -25 102 4 l21 22 -23 29 -24 30 25 29 c23 27 23 30 8 59 -12
23 -20 29 -37 24 -12 -3 -29 -6 -38 -6 -9 0 -21 -12 -28 -26 -10 -22 -9 -30 5
-45 9 -11 25 -19 36 -19 10 0 18 -4 18 -9 0 -16 -43 2 -66 28 -21 24 -21 26
-3 55 13 22 15 34 8 50 -9 18 -7 17 9 -3 15 -19 25 -22 50 -17 17 4 37 17 45
30 14 20 13 26 0 54 -16 33 -24 36 -59 22z m-84 -160 c0 -5 -4 -10 -10 -10 -5
0 -10 5 -10 10 0 6 5 10 10 10 6 0 10 -4 10 -10z"/>
<path d="M1175 1623 c-62 -15 -51 -81 16 -98 20 -5 32 -1 48 16 11 13 21 27
21 32 0 10 -51 58 -60 56 -3 -1 -14 -3 -25 -6z"/>
<path d="M580 1611 c0 -5 -9 -13 -20 -16 -63 -20 -55 -75 11 -75 27 0 41 6 52
23 13 21 13 26 -1 50 -16 26 -42 37 -42 18z"/>
<path d="M664 1561 c-18 -11 -35 -24 -38 -29 -11 -18 16 -60 43 -67 20 -5 30
-1 48 21 22 28 21 37 -9 76 -12 17 -15 17 -44 -1z"/>
<path d="M1044 1546 c-13 -22 -14 -29 -2 -53 20 -42 60 -43 86 -2 18 30 19 34
5 56 -21 32 -67 31 -89 -1z"/>
<path d="M1265 1557 c-38 -47 -38 -46 -21 -72 21 -32 59 -33 97 -1 l29 25 -26
30 c-27 32 -61 40 -79 18z"/>
<path d="M453 1513 c-37 -42 -35 -53 11 -53 36 0 55 26 48 68 -5 31 -22 27
-59 -15z"/>
<path d="M1137 1490 c-16 -27 -17 -34 -5 -61 11 -26 18 -29 46 -27 24 2 38 11
52 33 18 28 18 31 2 52 -9 13 -30 25 -47 29 -26 5 -33 1 -48 -26z"/>
<path d="M1368 1496 c-12 -9 -14 -16 -7 -23 8 -8 6 -11 -6 -10 -10 1 -20 -4
-23 -12 -3 -9 0 -11 9 -6 8 5 11 5 7 0 -7 -8 28 -45 42 -45 5 0 2 100 -4 107
0 1 -9 -4 -18 -11z"/>
<path d="M1404 1465 c2 -28 5 -56 5 -62 1 -7 6 -13 11 -13 7 0 8 19 4 53 -9
69 -26 88 -20 22z"/>
<path d="M396 1435 c-20 -30 -20 -45 -1 -45 14 0 17 4 19 33 1 6 5 15 10 18 4
4 4 9 -2 13 -5 3 -17 -5 -26 -19z"/>
<path d="M429 1423 c-16 -40 7 -77 49 -81 26 -3 32 0 32 17 0 11 4 22 9 25 5
3 7 -10 4 -28 -7 -51 12 -79 45 -71 34 8 62 33 62 55 0 27 -43 60 -78 60 -25
0 -35 6 -44 25 -16 37 -65 35 -79 -2z"/>
<path d="M1036 1419 c-18 -30 -18 -32 1 -58 14 -18 31 -27 55 -29 32 -3 36 0
41 25 3 15 -1 43 -8 60 -19 46 -63 46 -89 2z"/>
<path d="M1237 1420 c-18 -30 -18 -31 5 -60 19 -24 28 -28 53 -23 31 6 65 37
65 58 0 22 -46 55 -76 55 -22 0 -34 -7 -47 -30z"/>
<path d="M734 1359 c-23 -46 -7 -79 39 -79 44 0 61 31 41 78 -18 44 -57 44
-80 1z"/>
<path d="M1144 1364 c-4 -14 -2 -40 3 -57 7 -26 15 -33 39 -35 23 -2 34 3 52
27 l22 30 -26 30 c-34 41 -81 43 -90 5z"/>
<path d="M1352 1360 c-18 -23 -21 -34 -13 -48 18 -33 39 -44 70 -37 27 6 29 9
28 48 -2 30 -8 45 -22 54 -29 18 -37 15 -63 -17z"/>
<path d="M352 1341 c-17 -56 -15 -61 22 -61 23 0 38 7 49 23 16 21 16 21 6
-10 -21 -65 38 -101 80 -48 16 22 18 31 9 55 -8 25 -15 30 -44 30 -25 0 -38 6
-50 25 -26 39 -58 33 -72 -14z"/>
<path d="M1280 1323 c-8 -2 -23 -15 -33 -29 -17 -23 -17 -25 0 -49 24 -33 65
-33 92 1 l20 26 -21 29 c-21 28 -28 31 -58 22z"/>
<path d="M830 1301 c-15 -29 -13 -39 15 -66 13 -14 20 -25 14 -25 -5 0 -16
-15 -25 -33 -14 -28 -20 -32 -47 -29 -24 3 -38 -3 -57 -22 l-24 -27 25 -23
c13 -13 38 -27 55 -30 26 -6 32 -3 41 17 8 18 22 26 52 31 31 5 44 13 55 34
13 26 13 31 -6 60 -11 18 -24 29 -29 26 -16 -9 -10 5 11 26 11 11 20 26 20 34
0 43 -80 64 -100 27z m4 -187 c3 -8 2 -12 -4 -9 -6 3 -10 10 -10 16 0 14 7 11
14 -7z"/>
<path d="M1035 1300 c-17 -19 -17 -21 1 -42 10 -13 19 -24 19 -25 0 0 16 -4
36 -8 31 -6 36 -4 47 19 19 43 -2 76 -48 76 -24 0 -43 -7 -55 -20z"/>
<path d="M931 1249 c-9 -27 -8 -36 10 -61 18 -24 26 -28 48 -23 74 18 62 115
-14 115 -28 0 -35 -5 -44 -31z"/>
<path d="M330 1263 c-1 -5 -3 -25 -6 -46 -4 -23 -1 -44 6 -52 11 -13 8 -18
-10 -17 -11 1 0 -82 13 -95 18 -18 78 -6 84 17 3 11 21 20 50 26 57 11 70 37
42 83 -24 39 -61 42 -85 6 -14 -21 -15 -30 -5 -52 6 -14 10 -27 8 -30 -2 -2
-10 10 -17 27 -11 26 -17 31 -39 26 l-26 -5 28 13 c43 19 60 49 45 80 -9 21
-18 26 -50 26 -21 0 -38 -3 -38 -7z"/>
<path d="M730 1244 c-13 -33 -13 -35 9 -61 25 -30 64 -30 85 1 14 22 14 27 0
55 -13 26 -21 31 -50 31 -28 0 -36 -5 -44 -26z"/>
<path d="M1389 1263 c-15 -2 -35 -13 -44 -23 -16 -18 -16 -21 5 -50 20 -28 27
-31 53 -26 38 8 43 15 42 63 -1 40 -7 44 -56 36z"/>
<path d="M1151 1237 c-5 -13 -7 -35 -4 -50 5 -27 15 -31 76 -30 9 0 17 -5 17
-11 0 -7 7 -22 16 -34 13 -19 19 -20 37 -11 12 6 32 21 44 32 l22 20 -20 28
c-25 35 -60 38 -83 7 -16 -22 -16 -22 -7 -2 8 17 6 28 -10 48 -27 34 -76 36
-88 3z"/>
<path d="M1042 1190 c-14 -39 6 -75 46 -83 32 -6 51 15 52 60 0 37 -2 39 -51
48 -34 6 -37 5 -47 -25z"/>
<path d="M624 1185 c-15 -22 -14 -26 3 -55 15 -25 22 -30 43 -25 29 7 70 43
70 60 0 21 -36 45 -68 45 -22 0 -36 -7 -48 -25z"/>
<path d="M975 1152 c-30 -4 -46 -45 -32 -82 6 -17 18 -30 27 -30 13 -1 13 -2
-1 -10 -27 -16 -44 -67 -29 -85 7 -9 11 -18 8 -20 -3 -3 -11 6 -18 20 -19 36
-67 33 -98 -6 -23 -28 -23 -31 -8 -54 9 -14 23 -25 31 -25 7 0 16 -4 19 -8 3
-5 -4 -8 -16 -8 -14 1 -24 -8 -30 -27 -8 -23 -6 -33 17 -62 20 -27 30 -33 43
-26 16 8 85 19 129 20 16 1 20 6 16 22 -5 17 -11 19 -37 13 -17 -3 -38 -12
-47 -20 -24 -22 -34 -16 -13 7 19 21 18 21 -12 48 l-30 28 26 31 c15 18 36 32
48 32 12 0 36 13 54 29 l32 29 -32 32 c-33 33 -39 42 -22 38 5 -2 21 11 36 27
l26 30 -22 -33 c-22 -32 -22 -34 -4 -55 10 -12 19 -23 19 -24 0 0 16 -4 36 -8
35 -7 37 -6 41 27 9 57 -15 97 -57 98 -11 0 -27 12 -36 28 -16 28 -23 31 -64
24z"/>
<path d="M1392 1151 c-18 -3 -31 -9 -30 -13 2 -4 -5 -13 -16 -21 -17 -13 -17
-15 -2 -44 13 -26 71 -61 82 -50 2 2 6 19 9 38 12 78 12 99 1 98 -6 -1 -26 -4
-44 -8z"/>
<path d="M530 1124 c-6 -14 -10 -30 -10 -35 0 -6 -5 -7 -10 -4 -18 11 -70 -6
-80 -25 -17 -32 4 -70 39 -70 33 0 64 38 55 67 -5 17 -5 17 6 1 14 -23 62 -23
83 0 21 23 21 36 1 67 -23 35 -71 35 -84 -1z"/>
<path d="M1141 1119 c-21 -48 -3 -79 48 -79 92 0 79 106 -14 109 -13 1 -25
-10 -34 -30z"/>
<path d="M639 1072 l-32 -29 19 -31 c14 -25 25 -32 49 -32 17 0 37 6 44 13 11
9 13 9 7 0 -4 -7 1 -26 11 -43 23 -39 54 -39 87 1 24 28 25 32 10 54 -21 32
-61 41 -88 18 -16 -14 -18 -14 -8 -2 11 14 8 22 -14 48 -32 38 -45 39 -85 3z"/>
<path d="M1284 1088 c-29 -14 -47 -54 -35 -77 26 -47 62 -48 85 -2 11 22 11
31 0 59 -15 35 -18 36 -50 20z"/>
<path d="M872 1083 c-63 -12 -43 -107 21 -101 43 4 60 38 40 79 -14 29 -18 30
-61 22z"/>
<path d="M340 1030 c-19 -4 -30 -8 -24 -9 6 0 9 -12 6 -26 -2 -13 -1 -36 2
-50 5 -21 12 -25 45 -25 36 0 40 3 51 34 8 25 8 40 -1 60 -13 27 -20 28 -79
16z"/>
<path d="M526 1008 c-18 -25 -21 -42 -7 -34 5 4 7 -2 4 -12 -2 -10 3 -24 11
-31 9 -8 16 -10 16 -7 0 4 9 2 19 -4 16 -8 23 -5 40 19 26 36 26 53 3 74 -26
24 -68 21 -86 -5z"/>
<path d="M1146 998 c-8 -50 -4 -68 13 -68 13 0 13 -2 -1 -12 -25 -20 -31 -70
-10 -94 13 -15 69 -44 87 -44 1 0 5 16 8 35 6 37 -9 95 -24 95 -5 0 5 13 22
28 l32 29 -23 31 c-19 26 -31 32 -61 32 -35 0 -38 -2 -43 -32z"/>
<path d="M1352 1017 c-19 -25 -20 -45 -2 -72 l19 -28 17 36 c10 20 20 34 24
32 4 -2 7 2 7 10 0 20 -53 37 -65 22z"/>
<path d="M430 954 c-13 -32 -13 -35 3 -67 18 -39 61 -38 76 3 16 47 -3 90 -40
90 -22 0 -32 -6 -39 -26z"/>
<path d="M621 940 l-23 -32 23 -24 c33 -35 95 -34 111 2 17 38 -9 78 -54 82
-28 2 -38 -2 -57 -28z"/>
<path d="M1040 940 c-19 -26 -20 -33 -8 -48 20 -26 31 -32 60 -32 23 0 29 6
36 33 10 37 5 67 -12 67 -6 0 -21 3 -32 6 -16 4 -27 -2 -44 -26z"/>
<path d="M1271 944 c-31 -26 -40 -44 -20 -44 5 0 8 4 4 9 -3 5 -1 12 4 15 10
7 9 -9 -4 -37 -10 -23 -8 -24 43 -35 39 -9 44 -8 59 14 16 26 11 60 -8 48 -8
-5 -9 -3 -5 5 8 12 -19 51 -35 51 -4 0 -21 -12 -38 -26z"/>
<path d="M1398 955 c-3 -11 -9 -29 -13 -40 -3 -11 1 -7 10 8 9 16 15 33 12 40
-2 6 -6 3 -9 -8z"/>
<path d="M519 893 c-6 -18 -6 -36 3 -60 11 -31 15 -34 42 -29 33 7 66 33 66
52 0 15 -46 49 -78 57 -18 4 -25 0 -33 -20z"/>
<path d="M331 861 c3 -63 10 -74 40 -66 37 10 64 52 53 84 -8 22 -16 27 -52
29 l-43 3 2 -50z"/>
<path d="M741 880 c-15 -45 1 -80 37 -80 40 0 58 39 37 80 -21 42 -59 41 -74
0z"/>
<path d="M973 903 c-13 -2 -32 -16 -43 -31 l-21 -26 29 -29 c25 -25 34 -28 61
-22 45 10 58 47 30 86 -11 16 -23 28 -27 28 -4 -1 -17 -4 -29 -6z"/>
<path d="M421 819 c-21 -28 -22 -32 -7 -55 23 -33 68 -33 95 2 19 24 19 28 5
55 -21 41 -62 40 -93 -2z"/>
<path d="M627 824 c-16 -21 -17 -28 -5 -54 11 -25 18 -30 50 -30 31 0 39 5 52
31 11 21 12 37 6 55 -14 35 -77 34 -103 -2z"/>
<path d="M1051 822 c-12 -30 -6 -82 10 -82 5 0 9 -5 9 -11 0 -5 -4 -8 -9 -4
-16 9 -24 -36 -11 -60 7 -13 23 -28 36 -33 20 -10 25 -8 38 20 17 33 7 68 -19
68 -7 0 -16 4 -19 9 -4 5 3 7 14 4 14 -4 24 4 39 28 20 32 20 32 0 61 -28 39
-72 39 -88 0z"/>
<path d="M1260 825 c-22 -57 -7 -71 33 -31 14 14 28 22 31 19 3 -4 6 -3 6 0 0
4 -14 13 -30 22 -29 15 -31 15 -40 -10z"/>
<path d="M555 793 c-11 -2 -28 -15 -39 -29 -18 -25 -18 -26 5 -50 29 -31 72
-32 92 -1 14 21 14 27 0 55 -15 32 -19 33 -58 25z"/>
<path d="M358 779 c-9 -5 -15 -15 -13 -22 2 -6 6 -24 9 -39 5 -21 11 -26 24
-21 34 12 42 33 26 64 -16 32 -20 33 -46 18z"/>
<path d="M730 760 c-12 -28 -10 -33 11 -57 13 -14 17 -22 9 -18 -8 5 -21 17
-28 27 -21 28 -78 24 -98 -7 -16 -25 -16 -27 7 -53 l24 -27 -31 28 c-37 33
-69 35 -89 3 -13 -20 -14 -29 -4 -48 11 -22 11 -22 -12 2 l-24 25 23 20 23 20
-26 28 c-52 55 -138 21 -100 -41 16 -26 15 -26 -8 2 -34 40 -47 28 -35 -31 14
-65 51 -121 86 -129 15 -3 35 -8 44 -10 12 -4 22 5 33 32 8 20 13 40 10 44 -3
5 6 3 19 -3 22 -11 23 -13 7 -19 -27 -10 -44 -59 -32 -91 9 -24 13 -26 37 -17
15 6 39 20 55 31 l28 20 -21 34 c-11 19 -24 35 -28 35 -9 0 41 56 50 57 3 0
11 1 18 2 6 0 12 8 12 17 0 8 4 13 9 9 5 -3 25 4 44 15 32 19 35 19 41 3 4
-10 4 -14 0 -11 -3 4 -20 0 -35 -8 -28 -14 -29 -15 -14 -44 17 -34 20 -36 61
-44 29 -6 33 -4 42 24 9 24 8 38 -5 65 -9 19 -23 36 -32 38 -11 3 -5 9 17 18
38 16 39 21 11 60 -15 22 -28 29 -53 29 -28 0 -36 -5 -46 -30z m-250 -130 c0
-5 -9 -10 -20 -10 -11 0 -27 -11 -36 -25 -21 -32 -29 -26 -13 8 7 16 22 27 38
30 14 2 27 5 29 6 1 0 2 -3 2 -9z"/>
<path d="M1150 760 c-20 -28 -20 -31 -4 -55 20 -31 29 -31 60 0 14 14 29 25
34 25 6 0 10 7 10 15 0 21 -9 19 -39 -7 l-26 -23 24 27 24 27 -27 11 c-35 13
-31 14 -56 -20z"/>
<path d="M958 732 c-24 -3 -26 -5 -15 -23 8 -13 23 -19 49 -19 21 0 38 4 38 9
0 5 3 16 6 25 6 15 -10 17 -78 8z"/>
<path d="M890 719 c-8 -5 -27 -13 -42 -19 -27 -9 -27 -9 -10 -40 9 -16 22 -30
29 -30 6 0 18 -3 26 -6 9 -3 23 6 36 25 l21 30 -22 25 c-17 18 -27 22 -38 15z"/>
<path d="M939 649 c-16 -23 -19 -33 -10 -42 8 -8 11 -8 11 2 0 7 5 9 10 6 6
-3 10 -1 10 5 0 6 3 9 8 7 10 -6 64 26 66 38 0 6 -16 11 -36 12 -31 2 -41 -3
-59 -28z"/>
<path d="M1134 645 c-15 -23 -15 -26 6 -55 28 -40 47 -38 106 8 l29 24 -28 24
c-38 33 -91 33 -113 -1z"/>
<path d="M1040 642 c0 -7 -4 -10 -10 -7 -5 3 -10 2 -10 -3 0 -5 -6 -9 -13 -9
-7 0 -25 -8 -40 -18 -21 -13 -25 -21 -17 -31 9 -10 18 -10 48 0 20 7 35 16 32
19 -3 3 3 12 12 19 13 9 15 17 8 28 -7 11 -10 11 -10 2z"/>
<path d="M682 610 c-13 -11 -21 -24 -17 -30 4 -6 3 -10 -2 -9 -19 3 -33 -2
-33 -12 0 -5 5 -7 12 -3 7 4 8 3 4 -5 -11 -18 21 -61 46 -61 11 0 27 8 34 18
13 16 14 16 8 0 -3 -10 -4 -18 -2 -18 16 0 98 33 98 40 0 16 -60 22 -77 8 -15
-11 -16 -11 -10 5 4 11 -1 25 -12 36 -11 11 -17 22 -13 25 3 3 0 6 -7 6 -7 0
-9 5 -6 10 9 14 3 12 -23 -10z"/>
<path d="M1054 598 c-23 -49 -6 -88 39 -88 27 0 36 5 46 26 10 24 9 30 -11 51
-42 46 -56 47 -74 11z"/>
<path d="M851 586 c-16 -52 -11 -65 28 -76 30 -8 38 -7 49 7 6 9 12 25 12 35
0 17 -2 17 -36 3 -44 -18 -57 -19 -51 -2 2 6 9 11 15 10 6 -2 23 2 38 7 21 8
24 13 15 24 -6 8 -23 16 -36 18 -20 4 -26 0 -34 -26z"/>
<path d="M1255 590 l-28 -29 24 -25 c29 -31 64 -33 81 -6 7 11 17 20 22 20 4
0 1 -12 -9 -26 -16 -25 -16 -27 6 -50 26 -28 61 -31 80 -8 11 13 10 17 -5 26
-10 6 -25 19 -35 30 -9 10 -37 36 -62 58 l-46 39 -28 -29z"/>
<path d="M984 559 c-55 -16 -65 -88 -14 -102 8 -3 23 -8 33 -12 26 -11 50 52
36 94 -6 17 -14 31 -17 30 -4 0 -21 -5 -38 -10z"/>
<path d="M1187 552 c-19 -2 -31 -12 -38 -28 -11 -31 -11 -37 0 -30 5 4 7 -3 4
-15 -4 -15 0 -22 16 -26 11 -3 21 -9 21 -14 0 -5 -7 -6 -15 -3 -9 4 -18 -1
-22 -12 -3 -11 -11 -22 -15 -25 -5 -3 -6 -17 -3 -31 5 -18 17 -28 43 -36 33
-11 39 -9 64 15 27 25 27 27 10 55 -9 15 -25 28 -37 29 -14 0 -16 2 -5 6 21 7
50 45 50 64 0 26 -42 55 -73 51z"/>
<path d="M400 508 c0 -10 5 -18 11 -18 6 0 9 -6 6 -14 -3 -7 -1 -32 5 -55 8
-33 15 -41 34 -41 12 0 35 10 50 23 22 19 26 29 20 50 -6 27 -22 35 -79 41
-16 2 -33 9 -38 17 -7 11 -9 11 -9 -3z"/>
<path d="M773 494 c-29 -11 -40 -20 -36 -30 10 -28 50 -14 82 29 16 20 10 20
-46 1z"/>
<path d="M826 488 c-21 -30 -20 -38 8 -70 31 -37 66 -36 94 2 l23 30 -25 25
c-14 14 -32 25 -40 25 -8 0 -21 3 -29 6 -9 3 -22 -4 -31 -18z"/>
<path d="M1045 471 c-15 -30 -12 -81 5 -81 5 0 2 -14 -7 -30 -8 -17 -12 -38
-8 -48 5 -14 4 -15 -6 -4 -22 21 -73 14 -98 -12 l-23 -24 24 -36 c17 -27 28
-34 43 -30 37 10 70 41 69 64 -1 21 0 22 12 6 9 -13 20 -16 42 -11 53 11 49
90 -6 113 -27 10 -27 11 -2 6 34 -7 63 39 51 82 -6 24 -13 29 -44 32 -31 3
-38 -1 -52 -27z"/>
<path d="M1257 470 c-17 -29 -17 -31 0 -55 23 -32 46 -31 77 2 l25 27 -20 28
c-27 37 -60 37 -82 -2z"/>
<path d="M636 458 c-25 -22 -25 -24 -8 -44 10 -12 32 -25 49 -28 27 -6 33 -4
45 22 32 64 -30 99 -86 50z"/>
<path d="M1434 449 c-3 -6 5 -22 19 -36 20 -21 31 -24 54 -18 l28 7 -25 19
c-14 10 -30 23 -37 29 -16 13 -30 13 -39 -1z"/>
<path d="M770 443 c-36 -15 -56 -59 -37 -83 7 -9 23 -21 37 -28 22 -11 22 -11
3 -6 -19 4 -26 -1 -39 -30 -16 -32 -16 -36 0 -60 21 -33 58 -34 84 -2 10 14
30 28 44 31 13 3 37 17 54 30 28 23 28 25 14 52 -19 35 -65 43 -85 16 -13 -17
-14 -17 -9 4 4 13 -3 33 -17 52 -24 32 -25 33 -49 24z m56 -112 c-4 -5 -2 -22
4 -38 l10 -28 -19 25 c-14 18 -17 28 -9 37 12 15 22 17 14 4z"/>
<path d="M940 418 c-24 -40 -24 -37 -1 -65 27 -32 74 -31 89 1 6 13 8 27 4 31
-4 4 -8 11 -8 16 -1 5 -2 13 -3 17 -1 8 -44 32 -57 32 -2 0 -13 -15 -24 -32z"/>
<path d="M578 433 c-10 -3 -18 -9 -18 -14 0 -6 -4 -8 -8 -5 -5 3 -16 -4 -25
-14 -13 -15 -14 -24 -4 -49 14 -38 49 -41 86 -8 26 22 26 22 7 0 -18 -22 -18
-22 10 -47 40 -35 75 -34 97 3 16 27 16 30 -2 52 -12 15 -29 23 -54 23 -21 1
-37 6 -37 12 0 21 -34 51 -52 47z"/>
<path d="M1340 406 c-14 -20 -30 -32 -39 -29 -9 2 -29 -9 -45 -26 -28 -29 -28
-31 -12 -56 21 -33 65 -33 95 -2 21 23 21 57 0 57 -5 0 -9 5 -9 12 0 6 10 2
23 -10 33 -31 80 -29 96 4 9 22 8 30 -10 55 -29 41 -69 40 -99 -5z"/>
<path d="M1492 383 c-28 -5 -45 -37 -36 -66 5 -18 4 -20 -7 -9 -23 22 -70 14
-95 -15 -13 -16 -24 -30 -24 -33 0 -3 14 -20 31 -38 l29 -33 40 33 c26 21 39
39 36 51 -2 9 0 17 5 17 5 0 9 -4 9 -10 0 -20 27 -9 60 25 30 31 32 37 22 60
-11 24 -22 27 -70 18z"/>
<path d="M465 371 c-18 -7 -17 -10 14 -39 41 -37 55 -33 36 10 -15 36 -21 40
-50 29z"/>
<path d="M1576 357 c3 -10 9 -15 12 -12 3 3 0 11 -7 18 -10 9 -11 8 -5 -6z"/>
<path d="M1144 305 c-3 -14 -4 -37 -2 -50 3 -14 1 -25 -3 -25 -5 0 -9 7 -9 16
0 12 -7 14 -32 9 -18 -4 -41 -14 -50 -24 -15 -14 -16 -21 -6 -54 9 -30 16 -37
30 -34 10 3 18 1 18 -4 0 -5 -7 -9 -15 -9 -25 0 -45 -42 -36 -75 6 -24 13 -30
34 -30 14 1 23 -3 21 -7 -3 -4 0 -8 5 -8 6 0 11 5 11 10 0 6 6 10 14 10 8 0
22 10 30 22 15 21 14 24 -19 58 l-34 35 22 27 c12 14 38 31 58 37 20 7 44 20
54 31 15 17 15 20 0 43 -9 14 -30 30 -47 36 -40 14 -37 15 -44 -14z"/>
<path d="M536 301 c-3 -5 11 -25 31 -45 l37 -36 21 21 20 20 -28 25 c-28 24
-71 32 -81 15z"/>
<path d="M875 260 c-11 -4 -31 -19 -44 -34 -23 -24 -23 -26 -7 -51 20 -31 74
-35 99 -7 23 25 21 42 -6 74 -17 20 -27 25 -42 18z"/>
<path d="M634 235 c-8 -13 -13 -28 -11 -32 7 -11 162 -123 170 -123 4 0 13 13
21 29 14 26 14 32 0 60 -21 43 -57 42 -84 -1 -11 -18 -20 -28 -20 -23 0 6 6
20 14 31 12 17 12 25 1 52 -12 26 -20 32 -44 32 -21 0 -35 -7 -47 -25z"/>
<path d="M1244 235 c-14 -21 -14 -28 -3 -43 12 -15 11 -15 -8 1 -19 17 -24 17
-56 3 -20 -8 -41 -24 -47 -36 -26 -49 84 -109 120 -65 7 8 16 13 20 10 8 -5 2
32 -9 50 -3 6 1 3 11 -7 22 -24 40 -23 72 7 33 31 33 45 -2 78 -36 35 -76 35
-98 2z"/>
<path d="M980 199 c-14 -5 -33 -20 -42 -33 -17 -23 -17 -25 0 -44 9 -11 31
-23 48 -27 25 -5 34 -2 46 17 12 19 13 29 3 57 -13 39 -20 43 -55 30z"/>
<path d="M825 110 c-19 -37 -14 -47 32 -67 33 -13 37 -13 59 8 13 12 24 30 24
39 0 26 -33 50 -68 50 -25 0 -35 -6 -47 -30z"/>
<path d="M933 55 c-13 -19 -19 -36 -14 -39 16 -10 110 -16 115 -7 11 17 -15
69 -37 75 -36 9 -41 7 -64 -29z"/>
<path d="M1170 55 c-21 -25 -5 -28 31 -6 34 21 34 21 8 21 -15 0 -32 -7 -39
-15z"/>
<path d="M1058 3 c7 -3 16 -2 19 1 4 3 -2 6 -13 5 -11 0 -14 -3 -6 -6z"/>
</g>
</svg>
